Coordinates
version=1
nRows=5
nColumns=40
inDegrees=yes

Units are S.I. units (second, meters, Newtons, ...)
Angles are in degrees.

endheader
time	pelvis_tilt	pelvis_list	pelvis_rotation	pelvis_tx	pelvis_ty	pelvis_tz	hip_flexion_r	hip_adduction_r	hip_rotation_r	knee_angle_r	knee_angle_r_beta	ankle_angle_r	subtalar_angle_r	mtp_angle_r	hip_flexion_l	hip_adduction_l	hip_rotation_l	knee_angle_l	knee_angle_l_beta	ankle_angle_l	subtalar_angle_l	mtp_angle_l	lumbar_extension	lumbar_bending	lumbar_rotation	arm_flex_r	arm_add_r	arm_rot_r	elbow_flex_r	pro_sup_r	wrist_flex_r	wrist_dev_r	arm_flex_l	arm_add_l	arm_rot_l	elbow_flex_l	pro_sup_l	wrist_flex_l	wrist_dev_l
     54.56500000	     -4.08428083	     -3.31972722	     -5.22480049	      0.96109840	      0.92233266	      0.46031649	     30.19554012	     -1.99232475	    -11.53762375	     20.31207612	     20.31207612	      2.98515463	      2.67893599	      4.78747243	      2.23190769	     -5.45199270	     -9.79026219	     16.35670374	     16.35670374	     18.54176935	     -8.74872355	     -3.17036717	    -11.98637852	      4.30431036	      3.19835756	     -5.28213269	    -16.40091635	      1.88852820	     25.48256440	     47.01381174	      0.00000000	      0.00000000	     19.86713111	    -19.00164150	     -9.23610538	     97.08658453	     48.30316182	      0.00000000	      0.00000000
     54.57621429	     -4.23164299	     -3.16039523	     -4.95229468	      0.96277144	      0.91999817	      0.46257211	     29.71694316	     -1.86886673	    -11.77022114	     19.67083686	     19.67083686	      3.07693240	      2.82401593	      4.93867939	      1.75143308	     -5.41021310	     -9.56279463	     16.35772579	     16.35772579	     19.09498447	     -8.64402668	     -3.34038638	    -11.48246953	      4.19467242	      2.82027880	     -6.95366723	    -16.35681988	      1.83649529	     24.91021009	     47.02338010	      0.00000000	      0.00000000	     20.49289181	    -19.44242392	     -9.52483631	     97.83427894	     48.34190901	      0.00000000	      0.00000000
     54.58742857	     -4.24295518	     -3.28061112	     -4.77497817	      0.96457287	      0.91814235	      0.46514466	     28.89821157	     -1.46865198	    -12.21194793	     19.01118381	     19.01118381	      3.00003254	      3.29943639	      4.81995326	      1.09787098	     -5.71525465	     -9.58809964	     16.42085243	     16.42085243	     19.79275143	     -8.33080424	     -3.22242723	    -11.33956323	      4.28847997	      3.25650627	     -8.94469979	    -16.24707013	      1.63848880	     24.58392265	     47.02404601	      0.00000000	      0.00000000	     21.17550880	    -19.17714277	     -9.32037378	    100.36537461	     48.39037852	      0.00000000	      0.00000000
     54.59864286	     -4.30852781	     -3.21909495	     -4.54315742	      0.96618561	      0.91604837	      0.46762761	     28.61420064	     -1.34948175	    -12.27667255	     19.39003594	     19.39003594	      2.92097772	      2.96898858	      3.87843151	      0.72730656	     -5.86770767	     -9.52847460	     16.85220264	     16.85220264	     20.65373897	     -7.97393813	     -2.87610572	    -11.13041132	      4.22367964	      3.29362069	    -10.84800177	    -16.17133552	      1.26793562	     24.90795970	     47.00588053	      0.00000000	      0.00000000	     21.50548287	    -19.29167689	     -9.02528837	    102.41345512	     48.42519213	      0.00000000	      0.00000000
     54.60985714	     -4.38737905	     -3.29091905	     -4.31347207	      0.96777515	      0.91419108	      0.47036343	     28.30734140	     -1.03409820	    -12.08788655	     19.80570377	     19.80570377	      2.30892249	      1.91375553	      1.30026993	      0.54386106	     -6.22652211	     -9.44615356	     17.65586091	     17.65586091	     21.74156685	     -7.59561160	     -1.61453863	    -10.93561906	      4.27890335	      3.33366080	    -13.04704967	    -16.10642892	      0.49093283	     26.53604657	     46.93834677	      0.00000000	      0.00000000	     21.66211501	    -19.55391061	     -8.72347183	    104.21577001	     48.46820996	      0.00000000	      0.00000000
